<svg width="25" height="28" viewBox="0 0 25 28" fill="none" xmlns="http://www.w3.org/2000/svg">
<path d="M2.77778 0H5.55556V4.42019H2.77778V0ZM8.33333 0H11.1111V4.42019H8.33333V0ZM13.8889 0H16.6667V4.42019H13.8889V0ZM22.2222 10.3138H19.4444V8.84037C19.4444 8.4496 19.2981 8.07484 19.0376 7.79852C18.7772 7.52221 18.4239 7.36698 18.0556 7.36698H1.38889C1.02053 7.36698 0.667263 7.52221 0.406796 7.79852C0.146329 8.07484 0 8.4496 0 8.84037V23.5743C0 24.7466 0.438987 25.8709 1.22039 26.6999C2.00179 27.5288 3.0616 27.9945 4.16667 27.9945H15.2778C16.3828 27.9945 17.4427 27.5288 18.2241 26.6999C19.0055 25.8709 19.4444 24.7466 19.4444 23.5743H22.2222C23.7542 23.5743 25 22.2527 25 20.6275V13.2606C25 11.6354 23.7542 10.3138 22.2222 10.3138ZM19.4444 20.6275V13.2606H22.2222L22.225 20.6275H19.4444Z" fill="white"/>
</svg>
