<svg width="48" height="48" viewBox="0 0 48 48" fill="none" xmlns="http://www.w3.org/2000/svg">
<path d="M12.39 2.379C14.4359 0.829547 16.9336 -0.00615984 19.5 3.32824e-06C20.22 3.32824e-06 20.793 0.375003 21.126 0.633003C21.498 0.927003 21.846 1.302 22.158 1.677C22.3792 1.9457 22.5001 2.28296 22.5 2.631V13.5H19.245C18.8912 12.4992 18.1949 11.6557 17.2793 11.1186C16.3637 10.5814 15.2876 10.3853 14.2414 10.5648C13.1952 10.7443 12.2461 11.2879 11.5618 12.0995C10.8776 12.9111 10.5024 13.9385 10.5024 15C10.5024 16.0615 10.8776 17.0889 11.5618 17.9005C12.2461 18.7121 13.1952 19.2557 14.2414 19.4352C15.2876 19.6147 16.3637 19.4186 17.2793 18.8815C18.1949 18.3443 18.8912 17.5008 19.245 16.5H22.5V44.745C22.5001 44.9671 22.451 45.1865 22.356 45.3872C22.2611 45.588 22.1228 45.7652 21.951 45.906C20.565 47.04 18.711 48 16.5 48C12.942 48 10.293 46.206 8.58 44.061C7.34928 42.5327 6.50633 40.7295 6.123 38.805C4.95744 38.4942 3.87675 37.9252 2.961 37.14C1.305 35.721 0 33.42 0 30C0 28.329 0.111 26.82 0.36 25.5H9.75C11.658 25.5 13.23 26.925 13.47 28.767C12.4723 29.1281 11.6343 29.83 11.104 30.7489C10.5736 31.6678 10.3849 32.7446 10.5713 33.789C10.7577 34.8335 11.3072 35.7785 12.1227 36.4572C12.9382 37.136 13.9673 37.5047 15.0282 37.4984C16.0892 37.492 17.1138 37.111 17.9211 36.4226C18.7285 35.7342 19.2666 34.7827 19.4405 33.736C19.6144 32.6894 19.4129 31.615 18.8716 30.7025C18.3302 29.79 17.4839 29.0981 16.482 28.749C16.3556 27.0501 15.5914 25.4619 14.3428 24.3029C13.0942 23.1439 11.4536 22.4998 9.75 22.5H1.323C1.782 21.606 2.397 20.85 3.198 20.313C3.40061 20.1789 3.61324 20.0605 3.834 19.959C2.982 17.463 3.204 14.541 4.026 12.246C4.551 10.77 5.385 9.375 6.531 8.445C7.287 7.83 8.187 7.425 9.171 7.347C9.603 5.298 10.818 3.603 12.393 2.379H12.39ZM25.5 37.5H27.75C29.5402 37.5 31.2571 36.7888 32.523 35.523C33.7888 34.2571 34.5 32.5402 34.5 30.75V25.245C35.5008 24.8912 36.3443 24.1949 36.8814 23.2793C37.4186 22.3637 37.6147 21.2876 37.4352 20.2414C37.2557 19.1952 36.7121 18.2461 35.9005 17.5618C35.0889 16.8776 34.0615 16.5024 33 16.5024C31.9385 16.5024 30.9111 16.8776 30.0995 17.5618C29.2879 18.2461 28.7443 19.1952 28.5648 20.2414C28.3853 21.2876 28.5814 22.3637 29.1186 23.2793C29.6557 24.1949 30.4992 24.8912 31.5 25.245V30.75C31.5 32.82 29.82 34.5 27.75 34.5H25.5V2.631C25.4999 2.28296 25.6208 1.9457 25.842 1.677C26.151 1.302 26.502 0.927003 26.874 0.633003C27.204 0.375003 27.777 3.32824e-06 28.5 3.32824e-06C31.0664 -0.00615984 33.5641 0.829547 35.61 2.379C37.185 3.603 38.4 5.298 38.829 7.347C39.813 7.422 40.713 7.83 41.469 8.445C42.615 9.375 43.449 10.77 43.974 12.246C44.796 14.541 45.018 17.466 44.166 19.956C44.382 20.058 44.595 20.178 44.802 20.316C45.627 20.865 46.254 21.651 46.716 22.578C47.625 24.393 48 26.925 48 30C48 33.423 46.695 35.721 45.039 37.14C44.1232 37.9252 43.0426 38.4942 41.877 38.805C41.577 40.479 40.737 42.417 39.42 44.061C37.71 46.206 35.058 48 31.5 48C29.292 48 27.435 47.04 26.052 45.906C25.8797 45.7655 25.7408 45.5884 25.6453 45.3876C25.5499 45.1868 25.5002 44.9673 25.5 44.745V37.5ZM15 13.5C14.6022 13.5 14.2206 13.658 13.9393 13.9393C13.658 14.2206 13.5 14.6022 13.5 15C13.5 15.3978 13.658 15.7794 13.9393 16.0607C14.2206 16.342 14.6022 16.5 15 16.5C15.3978 16.5 15.7794 16.342 16.0607 16.0607C16.342 15.7794 16.5 15.3978 16.5 15C16.5 14.6022 16.342 14.2206 16.0607 13.9393C15.7794 13.658 15.3978 13.5 15 13.5ZM15 31.5C14.6022 31.5 14.2206 31.658 13.9393 31.9393C13.658 32.2206 13.5 32.6022 13.5 33C13.5 33.3978 13.658 33.7794 13.9393 34.0607C14.2206 34.342 14.6022 34.5 15 34.5C15.3978 34.5 15.7794 34.342 16.0607 34.0607C16.342 33.7794 16.5 33.3978 16.5 33C16.5 32.6022 16.342 32.2206 16.0607 31.9393C15.7794 31.658 15.3978 31.5 15 31.5ZM33 22.5C33.3978 22.5 33.7794 22.342 34.0607 22.0607C34.342 21.7794 34.5 21.3978 34.5 21C34.5 20.6022 34.342 20.2206 34.0607 19.9393C33.7794 19.658 33.3978 19.5 33 19.5C32.6022 19.5 32.2206 19.658 31.9393 19.9393C31.658 20.2206 31.5 20.6022 31.5 21C31.5 21.3978 31.658 21.7794 31.9393 22.0607C32.2206 22.342 32.6022 22.5 33 22.5Z" fill="black"/>
</svg>
