<svg width="50" height="50" viewBox="0 0 50 50" fill="none" xmlns="http://www.w3.org/2000/svg">
<path d="M25 50C38.785 50 50 38.785 50 25C50 11.215 38.785 0 25 0C11.215 0 0 11.215 0 25C0 38.785 11.215 50 25 50ZM33.7325 17.5C34.231 17.4873 34.7269 17.5745 35.1911 17.7565C35.6554 17.9385 36.0784 18.2116 36.4354 18.5597C36.7924 18.9078 37.0761 19.3238 37.2697 19.7833C37.4634 20.2428 37.563 20.7364 37.5629 21.235C37.5627 21.7337 37.4627 22.2272 37.2688 22.6865C37.0748 23.1459 36.7909 23.5618 36.4336 23.9096C36.0764 24.2575 35.6531 24.5303 35.1888 24.712C34.7245 24.8937 34.2284 24.9806 33.73 24.9675C32.7565 24.942 31.8314 24.5372 31.152 23.8395C30.4726 23.1419 30.0925 22.2064 30.0929 21.2325C30.0932 20.2587 30.4739 19.3235 31.1538 18.6262C31.8336 17.929 32.759 17.5249 33.7325 17.5V17.5ZM22.98 34.7975C24.3134 35.065 25.6866 35.065 27.02 34.7975C27.6525 34.6675 28.2825 34.47 28.895 34.215C29.48 33.965 30.055 33.655 30.5925 33.295C31.1125 32.94 31.61 32.53 32.07 32.0725C32.5275 31.6175 32.9375 31.12 33.2925 30.5925L37.4375 33.385C36.3599 34.9822 34.9859 36.3579 33.39 37.4375C31.7641 38.5347 29.9388 39.3025 28.0175 39.6975C26.0256 40.0976 23.974 40.0968 21.9825 39.695C20.0606 39.3057 18.2352 38.5384 16.6125 37.4375C15.0166 36.3552 13.6413 34.9791 12.56 33.3825L16.705 30.59C17.0625 31.1175 17.4725 31.615 17.925 32.065C19.3053 33.4522 21.0633 34.4025 22.98 34.7975V34.7975ZM16.25 17.5C16.7426 17.5002 17.2304 17.5974 17.6854 17.786C18.1405 17.9747 18.554 18.2511 18.9022 18.5996C19.2504 18.9481 19.5266 19.3617 19.7149 19.8169C19.9033 20.2721 20.0002 20.7599 20 21.2525C19.9998 21.7451 19.9026 22.2329 19.714 22.6879C19.5253 23.143 19.2489 23.5565 18.9004 23.9047C18.552 24.2529 18.1383 24.5291 17.6831 24.7174C17.228 24.9058 16.7401 25.0027 16.2475 25.0025C15.2526 25.0022 14.2986 24.6066 13.5953 23.9029C12.8921 23.1992 12.4972 22.2449 12.4975 21.25C12.4978 20.2551 12.8934 19.3011 13.5971 18.5978C14.3008 17.8946 15.2551 17.4997 16.25 17.5Z" fill="black"/>
</svg>
