<svg width="50" height="58" viewBox="0 0 50 58" fill="none" xmlns="http://www.w3.org/2000/svg">
<g clip-path="url(#clip0_62_107)">
<path d="M17.779 0.60298C18.6496 -0.211752 20 -0.200592 20.8705 0.61414C23.9509 3.50477 26.8415 6.6186 29.5424 9.98914C30.7701 8.382 32.1652 6.62976 33.6719 5.20119C34.5536 4.3753 35.9152 4.3753 36.7969 5.21235C40.6585 8.89539 43.9286 13.7615 46.2277 18.382C48.4933 22.9356 50 27.5896 50 30.8708C50 45.1119 38.8616 57.1432 25 57.1432C10.9821 57.1432 0 45.1007 0 30.8597C0 26.574 1.98661 21.3396 5.06696 16.161C8.1808 10.9043 12.5781 5.42441 17.779 0.60298ZM25.1897 46.4289C28.0134 46.4289 30.5134 45.6476 32.8683 44.0851C37.567 40.8039 38.8281 34.2414 36.0045 29.0851C35.692 28.4601 35.3795 27.8351 34.9107 27.2101L29.2634 33.7726C29.2634 33.7726 20.1786 22.2101 19.5424 21.4289C14.8549 27.2101 12.5 30.4914 12.5 34.2414C12.5 41.8976 18.1473 46.4289 25.1897 46.4289Z" fill="black"/>
</g>
<defs>
<clipPath id="clip0_62_107">
<rect width="50" height="57.1429" fill="white"/>
</clipPath>
</defs>
</svg>
