<svg width="65" height="65" viewBox="0 0 65 65" fill="none" xmlns="http://www.w3.org/2000/svg">
<circle cx="32.5" cy="32.5" r="32.5" fill="#EFA331"/>
<path d="M15.25 35.1667C16.9792 36.5042 19.5771 37.2854 22.5417 37.25C25.5062 37.2854 28.1042 36.5042 29.8333 35.1667C31.5625 33.8292 34.1604 33.0479 37.125 33.0833C40.0896 33.0479 42.6875 33.8292 44.4167 35.1667M25.6667 12.25C25.0073 12.7233 24.4731 13.3499 24.1101 14.0759C23.7471 14.8018 23.5663 15.6052 23.5833 16.4167C23.5663 17.2281 23.7471 18.0315 24.1101 18.7574C24.4731 19.4834 25.0073 20.1101 25.6667 20.5833M34 12.25C33.3406 12.7233 32.8064 13.3499 32.4434 14.0759C32.0805 14.8018 31.8997 15.6052 31.9167 16.4167C31.8997 17.2281 32.0805 18.0315 32.4434 18.7574C32.8064 19.4834 33.3406 20.1101 34 20.5833" stroke="black" stroke-width="3" stroke-linecap="round" stroke-linejoin="round"/>
<path d="M15.25 26.8334H44.4167V37.25C44.4167 40.5652 43.0997 43.7447 40.7555 46.0889C38.4113 48.4331 35.2319 49.75 31.9167 49.75H27.75C24.4348 49.75 21.2554 48.4331 18.9112 46.0889C16.567 43.7447 15.25 40.5652 15.25 37.25V26.8334Z" stroke="black" stroke-width="3" stroke-linecap="round" stroke-linejoin="round"/>
<path d="M43.8875 40.8458C44.8179 41.273 45.839 41.465 46.861 41.405C47.883 41.3451 48.8747 41.035 49.7488 40.502C50.6229 39.9691 51.3526 39.2296 51.874 38.3485C52.3953 37.4674 52.6922 36.4717 52.7386 35.449C52.785 34.4263 52.5795 33.4078 52.1401 32.4832C51.7006 31.5585 51.0408 30.7559 50.2186 30.146C49.3963 29.5361 48.4368 29.1375 47.4244 28.9853C46.4121 28.833 45.3778 28.9318 44.4125 29.2729" stroke="black" stroke-width="3" stroke-linecap="round" stroke-linejoin="round"/>
</svg>
