<svg width="53" height="44" viewBox="0 0 53 44" fill="none" xmlns="http://www.w3.org/2000/svg">
<path d="M52.75 5.56253C50.8193 6.41803 48.7453 6.99607 46.5649 7.25734C48.8147 5.91118 50.4978 3.79249 51.3002 1.29658C49.1866 2.55206 46.8732 3.43579 44.4609 3.90933C42.8386 2.17721 40.6899 1.02913 38.3483 0.643337C36.0066 0.257547 33.6032 0.655632 31.511 1.77579C29.4188 2.89594 27.755 4.67549 26.7778 6.83816C25.8006 9.00082 25.5648 11.4256 26.1069 13.736C21.824 13.521 17.6343 12.4078 13.8095 10.4687C9.98469 8.52964 6.61037 5.80799 3.9055 2.48041C2.98063 4.0758 2.44884 5.92554 2.44884 7.8955C2.44781 9.66892 2.88453 11.4152 3.72025 12.9793C4.55597 14.5435 5.76485 15.8772 7.23964 16.8621C5.52928 16.8077 3.85665 16.3455 2.36098 15.5141V15.6528C2.3608 18.1401 3.22118 20.5509 4.79611 22.476C6.37104 24.4012 8.56352 25.7221 11.0015 26.2148C9.41489 26.6442 7.75141 26.7074 6.13674 26.3998C6.8246 28.5399 8.1645 30.4114 9.96884 31.7522C11.7732 33.0931 13.9517 33.8361 16.1993 33.8773C12.3838 36.8725 7.67176 38.4972 2.8211 38.4901C1.96185 38.4903 1.10333 38.4401 0.249969 38.3398C5.17367 41.5055 10.9052 43.1856 16.7588 43.1791C36.5741 43.1791 47.4066 26.7674 47.4066 12.5337C47.4066 12.0713 47.395 11.6042 47.3742 11.1418C49.4812 9.618 51.3 7.7311 52.7453 5.56946L52.75 5.56253Z" fill="black"/>
</svg>
